<svg fill="none" xmlns="http://www.w3.org/2000/svg" viewBox="0 0 20 20"><path fill-rule="evenodd" clip-rule="evenodd" d="M3 1a2 2 0 00-2 2v3c0 1.1.9 2 2 2h3a2 2 0 002-2V3a2 2 0 00-2-2H3zm0 11a2 2 0 00-2 2v3c0 1.1.9 2 2 2h3a2 2 0 002-2v-3a2 2 0 00-2-2H3zm9-9c0-1.1.9-2 2-2h3a2 2 0 012 2v3a2 2 0 01-2 2h-3a2 2 0 01-2-2V3zm2 9a2 2 0 00-2 2v3c0 1.1.9 2 2 2h3a2 2 0 002-2v-3a2 2 0 00-2-2h-3z" fill="#576BCC"/><path d="M2 3a1 1 0 011-1V0a3 3 0 00-3 3h2zm0 3V3H0v3h2zm1 1a1 1 0 01-1-1H0a3 3 0 003 3V7zm3 0H3v2h3V7zm1-1a1 1 0 01-1 1v2a3 3 0 003-3H7zm0-3v3h2V3H7zM6 2a1 1 0 011 1h2a3 3 0 00-3-3v2zM3 2h3V0H3v2zM2 14a1 1 0 011-1v-2a3 3 0 00-3 3h2zm0 3v-3H0v3h2zm1 1a1 1 0 01-1-1H0a3 3 0 003 3v-2zm3 0H3v2h3v-2zm1-1a1 1 0 01-1 1v2a3 3 0 003-3H7zm0-3v3h2v-3H7zm-1-1a1 1 0 011 1h2a3 3 0 00-3-3v2zm-3 0h3v-2H3v2zM14 0a3 3 0 00-3 3h2a1 1 0 011-1V0zm3 0h-3v2h3V0zm3 3a3 3 0 00-3-3v2a1 1 0 011 1h2zm0 3V3h-2v3h2zm-3 3a3 3 0 003-3h-2a1 1 0 01-1 1v2zm-3 0h3V7h-3v2zm-3-3a3 3 0 003 3V7a1 1 0 01-1-1h-2zm0-3v3h2V3h-2zm2 11a1 1 0 011-1v-2a3 3 0 00-3 3h2zm0 3v-3h-2v3h2zm1 1a1 1 0 01-1-1h-2a3 3 0 003 3v-2zm3 0h-3v2h3v-2zm1-1a1 1 0 01-1 1v2a3 3 0 003-3h-2zm0-3v3h2v-3h-2zm-1-1a1 1 0 011 1h2a3 3 0 00-3-3v2zm-3 0h3v-2h-3v2z" fill="#576BCC"/></svg>