<svg width="162" height="36" viewBox="0 0 162 36" fill="none" xmlns="http://www.w3.org/2000/svg">
<path d="M48.3117 16.3086H55.3436V18.9714H45V2.88393H48.3117V16.3086Z" fill="#3C425F"/>
<path d="M62.7671 19.1924C61.0156 19.1924 59.5879 18.6547 58.484 17.5792C57.3874 16.5038 56.8391 15.0711 56.8391 13.2811V12.9718C56.8391 11.7711 57.071 10.6993 57.5346 9.75647C57.9982 8.80625 58.6532 8.07701 59.4995 7.56875C60.3532 7.05313 61.3247 6.79531 62.4138 6.79531C64.0476 6.79531 65.3318 7.31094 66.2665 8.34219C67.2085 9.37344 67.6795 10.8356 67.6795 12.7287V14.0325H60.0736C60.1766 14.8133 60.4857 15.4394 61.0009 15.9108C61.5234 16.3823 62.182 16.618 62.9768 16.618C64.2058 16.618 65.1662 16.1723 65.858 15.281L67.4256 17.0378C66.9472 17.7155 66.2996 18.2459 65.4827 18.6289C64.6658 19.0046 63.7606 19.1924 62.7671 19.1924ZM62.4028 9.3808C61.7699 9.3808 61.2547 9.59442 60.8573 10.0217C60.4673 10.4489 60.2171 11.0603 60.1067 11.8558H64.5444V11.6017C64.5297 10.8945 64.3383 10.3494 63.9703 9.96641C63.6024 9.576 63.0799 9.3808 62.4028 9.3808Z" fill="#3C425F"/>
<path d="M73.5465 4.07723V7.01629H75.5887V9.35871H73.5465V15.3252C73.5465 15.7672 73.6311 16.0839 73.8004 16.2754C73.9696 16.467 74.2935 16.5627 74.7718 16.5627C75.1251 16.5627 75.4378 16.5369 75.7101 16.4854V18.9051C75.0846 19.0967 74.4406 19.1924 73.7783 19.1924C71.5411 19.1924 70.4004 18.0617 70.3562 15.8003V9.35871H68.612V7.01629H70.3562V4.07723H73.5465Z" fill="#3C425F"/>
<path d="M78.7732 7.82288L77.2719 6.95C77.9048 5.95558 78.2323 4.92801 78.2544 3.8673V2H80.7934V3.71261C80.7934 4.37556 80.6094 5.09375 80.2414 5.86719C79.8735 6.64063 79.3841 7.29252 78.7732 7.82288Z" fill="#3C425F"/>
<path d="M87.1792 15.6677C87.1792 15.2773 86.9842 14.9717 86.5942 14.7507C86.2115 14.5223 85.5933 14.3198 84.7396 14.143C81.8989 13.5463 80.4785 12.3383 80.4785 10.5189C80.4785 9.45815 80.9164 8.57422 81.7922 7.86708C82.6753 7.15257 83.8271 6.79531 85.2474 6.79531C86.7634 6.79531 87.9741 7.15257 88.8792 7.86708C89.7918 8.58159 90.2481 9.50971 90.2481 10.6515H87.0578C87.0578 10.1948 86.9106 9.81909 86.6162 9.52444C86.3219 9.22243 85.8619 9.07143 85.2364 9.07143C84.6991 9.07143 84.2833 9.19297 83.989 9.43605C83.6946 9.67913 83.5474 9.9885 83.5474 10.3642C83.5474 10.7177 83.713 11.005 84.0442 11.226C84.3827 11.4396 84.9494 11.6275 85.7442 11.7895C86.539 11.9442 87.2087 12.121 87.7533 12.3199C89.4386 12.9386 90.2812 14.0104 90.2812 15.5352C90.2812 16.6253 89.8139 17.5093 88.8792 18.1869C87.9446 18.8573 86.7377 19.1924 85.2584 19.1924C84.2576 19.1924 83.3671 19.0156 82.587 18.6621C81.8143 18.3011 81.2071 17.8113 80.7656 17.1925C80.324 16.5664 80.1032 15.8924 80.1032 15.1705H83.1279C83.1574 15.7377 83.3671 16.1723 83.7571 16.4743C84.1472 16.7763 84.6697 16.9273 85.3247 16.9273C85.9355 16.9273 86.3955 16.8132 86.7046 16.5848C87.021 16.3491 87.1792 16.0434 87.1792 15.6677Z" fill="#3C425F"/>
<path d="M106.972 14.7507C106.972 14.1246 106.751 13.6458 106.309 13.3143C105.868 12.9754 105.073 12.6219 103.925 12.2536C102.777 11.8779 101.868 11.5096 101.198 11.1487C99.3732 10.1616 98.4607 8.83203 98.4607 7.15993C98.4607 6.29074 98.7035 5.5173 99.1893 4.83962C99.6823 4.15458 100.385 3.62054 101.298 3.2375C102.218 2.85446 103.248 2.66295 104.389 2.66295C105.537 2.66295 106.56 2.87288 107.457 3.29275C108.355 3.70525 109.051 4.29085 109.544 5.04955C110.044 5.80826 110.295 6.67009 110.295 7.63505H106.983C106.983 6.89844 106.751 6.32757 106.287 5.92243C105.824 5.50993 105.172 5.30368 104.333 5.30368C103.524 5.30368 102.895 5.47679 102.446 5.82299C101.997 6.16183 101.772 6.61116 101.772 7.17098C101.772 7.69397 102.034 8.13225 102.556 8.48583C103.086 8.8394 103.862 9.17087 104.885 9.48025C106.769 10.0474 108.142 10.7509 109.003 11.5906C109.864 12.4304 110.295 13.4763 110.295 14.7286C110.295 16.1208 109.768 17.2146 108.716 18.0102C107.664 18.7983 106.247 19.1924 104.466 19.1924C103.23 19.1924 102.104 18.9677 101.088 18.5184C100.072 18.0617 99.296 17.4393 98.7587 16.6511C98.2289 15.8629 97.9639 14.9496 97.9639 13.9109H101.287C101.287 15.6862 102.346 16.5738 104.466 16.5738C105.253 16.5738 105.868 16.4154 106.309 16.0987C106.751 15.7746 106.972 15.3252 106.972 14.7507Z" fill="#3C425F"/>
<path d="M123.315 13.1044C123.315 14.9459 122.895 16.4228 122.056 17.535C121.225 18.64 120.099 19.1924 118.678 19.1924C117.472 19.1924 116.496 18.7725 115.753 17.9328V23.5679H112.563V7.01629H115.521L115.632 8.1875C116.404 7.25938 117.413 6.79531 118.656 6.79531C120.128 6.79531 121.273 7.3404 122.09 8.43058C122.906 9.52076 123.315 11.0234 123.315 12.9386V13.1044ZM120.125 12.8723C120.125 11.76 119.926 10.9019 119.528 10.2979C119.138 9.69386 118.568 9.39185 117.817 9.39185C116.817 9.39185 116.128 9.77489 115.753 10.541V15.4357C116.143 16.2239 116.839 16.618 117.839 16.618C119.363 16.618 120.125 15.3694 120.125 12.8723Z" fill="#3C425F"/>
<path d="M131.025 19.1924C129.274 19.1924 127.846 18.6547 126.742 17.5792C125.646 16.5038 125.097 15.0711 125.097 13.2811V12.9718C125.097 11.7711 125.329 10.6993 125.793 9.75647C126.257 8.80625 126.911 8.07701 127.758 7.56875C128.612 7.05313 129.583 6.79531 130.672 6.79531C132.306 6.79531 133.59 7.31094 134.525 8.34219C135.467 9.37344 135.938 10.8356 135.938 12.7287V14.0325H128.332C128.435 14.8133 128.744 15.4394 129.259 15.9108C129.782 16.3823 130.44 16.618 131.235 16.618C132.464 16.618 133.425 16.1723 134.116 15.281L135.684 17.0378C135.205 17.7155 134.558 18.2459 133.741 18.6289C132.924 19.0046 132.019 19.1924 131.025 19.1924ZM130.661 9.3808C130.028 9.3808 129.513 9.59442 129.116 10.0217C128.726 10.4489 128.475 11.0603 128.365 11.8558H132.803V11.6017C132.788 10.8945 132.597 10.3494 132.229 9.96641C131.861 9.576 131.338 9.3808 130.661 9.3808Z" fill="#3C425F"/>
<path d="M144.907 18.9714C144.76 18.6842 144.653 18.3269 144.587 17.8997C143.814 18.7615 142.809 19.1924 141.573 19.1924C140.403 19.1924 139.431 18.8536 138.659 18.1759C137.893 17.4982 137.511 16.6438 137.511 15.6125C137.511 14.3455 137.978 13.3732 138.913 12.6955C139.855 12.0179 141.212 11.6753 142.986 11.668H144.454V10.9829C144.454 10.4305 144.311 9.9885 144.024 9.65703C143.744 9.32556 143.299 9.15982 142.688 9.15982C142.151 9.15982 141.727 9.28873 141.418 9.54654C141.117 9.80435 140.966 10.1579 140.966 10.6073H137.776C137.776 9.91484 137.989 9.274 138.416 8.68471C138.843 8.09542 139.446 7.63505 140.226 7.30357C141.006 6.96473 141.882 6.79531 142.853 6.79531C144.325 6.79531 145.492 7.1673 146.353 7.91127C147.221 8.64788 147.655 9.6865 147.655 11.0271V16.2092C147.663 17.3435 147.821 18.2017 148.13 18.7836V18.9714H144.907ZM142.268 16.7506C142.739 16.7506 143.174 16.6474 143.571 16.4412C143.968 16.2276 144.263 15.944 144.454 15.5904V13.5353H143.262C141.665 13.5353 140.815 14.0877 140.712 15.1926L140.701 15.3805C140.701 15.7782 140.841 16.106 141.12 16.3638C141.4 16.6217 141.783 16.7506 142.268 16.7506Z" fill="#3C425F"/>
<path d="M154.671 14.1761L153.522 15.3252V18.9714H150.332V2H153.522V11.4028L154.141 10.6073L157.198 7.01629H161.029L156.713 11.9994L161.404 18.9714H157.739L154.671 14.1761Z" fill="#3C425F"/>
<path d="M49.7026 26.1105V32.0881H49.0403V29.6794H47.1857L45.7286 32.0881H45L46.5013 29.5965C46.0929 29.4897 45.7746 29.2834 45.5464 28.9777C45.322 28.672 45.2097 28.3111 45.2097 27.8949C45.2097 27.3535 45.4029 26.9208 45.7893 26.5967C46.1793 26.2725 46.7055 26.1105 47.3679 26.1105H49.7026ZM45.8721 27.906C45.8721 28.2559 45.9825 28.5431 46.2033 28.7678C46.4277 28.9925 46.7386 29.1085 47.1361 29.1158H49.0403V26.674H47.3513C46.8914 26.674 46.5289 26.7845 46.264 27.0055C46.0027 27.2265 45.8721 27.5266 45.8721 27.906Z" fill="#3C425F"/>
<path d="M56.963 27.6905C56.963 27.3296 56.8287 27.0515 56.5601 26.8563C56.2915 26.6611 55.9216 26.5635 55.4506 26.5635C55.0238 26.5635 54.6577 26.674 54.3523 26.895C54.0505 27.1123 53.8997 27.3885 53.8997 27.7237H53.2428C53.2428 27.2265 53.4544 26.8158 53.8776 26.4917C54.3044 26.1676 54.8288 26.0055 55.4506 26.0055C56.1351 26.0055 56.6686 26.1528 57.0513 26.4475C57.434 26.7421 57.6253 27.1602 57.6253 27.7016C57.6253 27.9888 57.537 28.2485 57.3604 28.4805C57.1838 28.7126 56.9262 28.893 56.5877 29.0219C57.353 29.2319 57.7357 29.707 57.7357 30.4473C57.7357 30.985 57.5278 31.4104 57.112 31.7234C56.6962 32.0365 56.1443 32.193 55.4562 32.193C54.7901 32.193 54.2382 32.0254 53.8003 31.6903C53.3624 31.3551 53.1435 30.9169 53.1435 30.3754H53.8058C53.8058 30.7364 53.9641 31.0384 54.2805 31.2815C54.6006 31.5209 54.9925 31.6406 55.4562 31.6406C55.9603 31.6406 56.354 31.5356 56.6373 31.3257C56.9244 31.1121 57.0679 30.8229 57.0679 30.4583C57.0679 30.0569 56.9372 29.7677 56.676 29.591C56.4147 29.4142 56.0155 29.3258 55.4782 29.3258H54.5675V28.7512H55.5886C56.5049 28.7291 56.963 28.3756 56.963 27.6905Z" fill="#3C425F"/>
<path d="M61.8996 28.2816H63.6217C64.0633 28.2816 64.4497 28.3627 64.7808 28.5247C65.1157 28.6831 65.3677 28.9041 65.537 29.1877C65.71 29.4713 65.7964 29.8009 65.7964 30.1766C65.7964 30.7548 65.5977 31.2189 65.2003 31.5688C64.8066 31.915 64.273 32.0881 63.5997 32.0881H61.2428V26.1105H61.8996V28.2816ZM61.8996 28.8451V31.5301H63.6107C64.0854 31.5301 64.457 31.4104 64.7256 31.171C64.9979 30.9316 65.1341 30.6038 65.1341 30.1876C65.1341 29.7898 65.0016 29.4694 64.7367 29.2263C64.4754 28.9796 64.1167 28.8525 63.6604 28.8451H61.8996ZM67.8221 32.0881H67.1597V26.1105H67.8221V32.0881Z" fill="#3C425F"/>
<path d="M73.261 29.3479H72.3448V32.0881H71.6769V26.1105H72.3448V28.7623H73.25L75.4412 26.1105H76.2747L73.824 29.0109L76.5451 32.0881H75.673L73.261 29.3479Z" fill="#3C425F"/>
<path d="M78.9925 29.0109C78.9925 28.4363 79.1029 27.9189 79.3236 27.4585C79.5481 26.9981 79.8627 26.6408 80.2675 26.3867C80.6759 26.1289 81.1377 26 81.6529 26C82.4477 26 83.0916 26.2799 83.5847 26.8397C84.0778 27.3959 84.3243 28.1343 84.3243 29.0551V29.1932C84.3243 29.7714 84.2121 30.2926 83.9876 30.7566C83.7669 31.217 83.4541 31.5724 83.0493 31.8229C82.6446 32.0733 82.1828 32.1985 81.6639 32.1985C80.8728 32.1985 80.2288 31.9205 79.7321 31.3643C79.239 30.8045 78.9925 30.0642 78.9925 29.1435V29.0109ZM79.6548 29.1932C79.6548 29.9077 79.8388 30.4951 80.2068 30.9555C80.5784 31.4122 81.0641 31.6406 81.6639 31.6406C82.26 31.6406 82.7421 31.4122 83.11 30.9555C83.4817 30.4951 83.6675 29.8893 83.6675 29.1379V29.0109C83.6675 28.5542 83.5829 28.1362 83.4136 27.7568C83.2443 27.3775 83.007 27.0847 82.7016 26.8784C82.3962 26.6685 82.0466 26.5635 81.6529 26.5635C81.0641 26.5635 80.5839 26.7955 80.2123 27.2596C79.8406 27.72 79.6548 28.324 79.6548 29.0717V29.1932Z" fill="#3C425F"/>
<path d="M87.7431 32.0881V26.1105H89.9344C90.6924 26.1105 91.2738 26.2468 91.6785 26.5193C92.0833 26.7882 92.2857 27.1841 92.2857 27.7071C92.2857 28.0054 92.1955 28.2724 92.0152 28.5081C91.8349 28.7402 91.5718 28.9096 91.2259 29.0164C91.616 29.0901 91.9287 29.2576 92.1642 29.5191C92.4034 29.7806 92.523 30.0845 92.523 30.4307C92.523 30.9574 92.328 31.3662 91.9379 31.6571C91.5516 31.9444 91.0033 32.0881 90.2931 32.0881H87.7431ZM88.3999 29.3368V31.5356H90.3152C90.812 31.5356 91.1946 31.4398 91.4633 31.2483C91.7319 31.0568 91.8662 30.7806 91.8662 30.4196C91.8662 30.0882 91.7319 29.8248 91.4633 29.6296C91.1946 29.4344 90.812 29.3368 90.3152 29.3368H88.3999ZM88.3999 28.7844H90.0723C91.11 28.7696 91.6288 28.4161 91.6288 27.7237C91.6288 27.359 91.4853 27.0939 91.1983 26.9281C90.915 26.7587 90.4937 26.674 89.9344 26.674H88.3999V28.7844Z" fill="#3C425F"/>
<path d="M99.7447 32.0881C99.6785 31.9002 99.6362 31.6222 99.6178 31.2539C99.386 31.5559 99.0898 31.7897 98.7292 31.9555C98.3722 32.1175 97.9932 32.1985 97.5921 32.1985C97.0181 32.1985 96.5526 32.0383 96.1957 31.7179C95.8424 31.3975 95.6658 30.9924 95.6658 30.5025C95.6658 29.9206 95.9068 29.4602 96.3889 29.1214C96.8746 28.7825 97.5498 28.6131 98.4145 28.6131H99.6123V27.9336C99.6123 27.5064 99.4798 27.1712 99.2149 26.9281C98.9536 26.6814 98.5709 26.558 98.0668 26.558C97.6068 26.558 97.226 26.6758 96.9243 26.9116C96.6225 27.1473 96.4717 27.4309 96.4717 27.7623L95.8093 27.7568C95.8093 27.2817 96.0301 26.871 96.4717 26.5248C96.9132 26.1749 97.456 26 98.0999 26C98.7659 26 99.2903 26.1676 99.673 26.5027C100.059 26.8342 100.258 27.2983 100.269 27.8949V30.7235C100.269 31.3017 100.33 31.7345 100.451 32.0218V32.0881H99.7447ZM97.6694 31.6129C98.111 31.6129 98.5047 31.5061 98.8506 31.2925C99.2001 31.0789 99.454 30.7935 99.6123 30.4362V29.1214H98.4311C97.7724 29.1287 97.2573 29.2503 96.8856 29.486C96.514 29.718 96.3282 30.0384 96.3282 30.4473C96.3282 30.7824 96.4514 31.0605 96.698 31.2815C96.9482 31.5025 97.272 31.6129 97.6694 31.6129Z" fill="#3C425F"/>
<path d="M108.368 26.1105V32.0881H107.706V29.6794H105.852L104.394 32.0881H103.666L105.167 29.5965C104.759 29.4897 104.44 29.2834 104.212 28.9777C103.988 28.672 103.876 28.3111 103.876 27.8949C103.876 27.3535 104.069 26.9208 104.455 26.5967C104.845 26.2725 105.371 26.1105 106.034 26.1105H108.368ZM104.538 27.906C104.538 28.2559 104.648 28.5431 104.869 28.7678C105.094 28.9925 105.404 29.1085 105.802 29.1158H107.706V26.674H106.017C105.557 26.674 105.195 26.7845 104.93 27.0055C104.669 27.2265 104.538 27.5266 104.538 27.906Z" fill="#3C425F"/>
<path d="M120.662 26.1105V31.5301H123.317V26.1105H123.98V31.5301H126.612V26.1105H127.275V32.0881H120V26.1105H120.662Z" fill="#3C425F"/>
<path d="M132.532 29.3479H131.615V32.0881H130.947V26.1105H131.615V28.7623H132.52L134.712 26.1105H135.545L133.094 29.0109L135.816 32.0881H134.944L132.532 29.3479Z" fill="#3C425F"/>
<path d="M138.263 29.0109C138.263 28.4363 138.373 27.9189 138.594 27.4585C138.819 26.9981 139.133 26.6408 139.538 26.3867C139.946 26.1289 140.408 26 140.923 26C141.718 26 142.362 26.2799 142.855 26.8397C143.348 27.3959 143.595 28.1343 143.595 29.0551V29.1932C143.595 29.7714 143.483 30.2926 143.258 30.7566C143.037 31.217 142.725 31.5724 142.32 31.8229C141.915 32.0733 141.453 32.1985 140.934 32.1985C140.143 32.1985 139.499 31.9205 139.003 31.3643C138.51 30.8045 138.263 30.0642 138.263 29.1435V29.0109ZM138.925 29.1932C138.925 29.9077 139.109 30.4951 139.477 30.9555C139.849 31.4122 140.335 31.6406 140.934 31.6406C141.531 31.6406 142.013 31.4122 142.381 30.9555C142.752 30.4951 142.938 29.8893 142.938 29.1379V29.0109C142.938 28.5542 142.853 28.1362 142.684 27.7568C142.515 27.3775 142.277 27.0847 141.972 26.8784C141.667 26.6685 141.317 26.5635 140.923 26.5635C140.335 26.5635 139.854 26.7955 139.483 27.2596C139.111 27.72 138.925 28.324 138.925 29.0717V29.1932Z" fill="#3C425F"/>
<path d="M151.446 26.1105V32.0881H150.783V26.6795H148.338L148.233 28.917C148.189 29.7456 148.106 30.3791 147.985 30.8174C147.864 31.252 147.683 31.5724 147.444 31.7787C147.205 31.9849 146.887 32.0881 146.489 32.0881H146.235V31.5025L146.44 31.4914C146.819 31.484 147.091 31.2999 147.256 30.939C147.422 30.578 147.531 29.9335 147.582 29.0054L147.704 26.1105H151.446Z" fill="#3C425F"/>
<path d="M158.971 32.0881C158.905 31.9002 158.863 31.6222 158.844 31.2539C158.612 31.5559 158.316 31.7897 157.955 31.9555C157.599 32.1175 157.22 32.1985 156.818 32.1985C156.244 32.1985 155.779 32.0383 155.422 31.7179C155.069 31.3975 154.892 30.9924 154.892 30.5025C154.892 29.9206 155.133 29.4602 155.615 29.1214C156.101 28.7825 156.776 28.6131 157.641 28.6131H158.839V27.9336C158.839 27.5064 158.706 27.1712 158.441 26.9281C158.18 26.6814 157.797 26.558 157.293 26.558C156.833 26.558 156.452 26.6758 156.151 26.9116C155.849 27.1473 155.698 27.4309 155.698 27.7623L155.036 27.7568C155.036 27.2817 155.256 26.871 155.698 26.5248C156.14 26.1749 156.682 26 157.326 26C157.992 26 158.517 26.1676 158.899 26.5027C159.286 26.8342 159.484 27.2983 159.495 27.8949V30.7235C159.495 31.3017 159.556 31.7345 159.678 32.0218V32.0881H158.971ZM156.896 31.6129C157.337 31.6129 157.731 31.5061 158.077 31.2925C158.426 31.0789 158.68 30.7935 158.839 30.4362V29.1214H157.657C156.999 29.1287 156.484 29.2503 156.112 29.486C155.74 29.718 155.554 30.0384 155.554 30.4473C155.554 30.7824 155.678 31.0605 155.924 31.2815C156.175 31.5025 156.498 31.6129 156.896 31.6129Z" fill="#3C425F"/>
<path fill-rule="evenodd" clip-rule="evenodd" d="M0 8C0 3.58172 3.58172 0 8 0H25C29.4183 0 33 3.58172 33 8V23C33 27.4183 29.4183 31 25 31H15L5 36V30.4185C2.06817 29.2317 0 26.3574 0 23V8ZM24.9999 12C24.9999 9.79086 23.2091 8 20.9999 8H11.9999C9.7908 8 7.99994 9.79086 7.99994 12V18C7.99994 20.2091 9.7908 22 11.9999 22H13.9999L21.9999 26V21.874C23.7252 21.4299 24.9999 19.8638 24.9999 18V12Z" fill="url(#paint0_linear)"/>
<defs>
<linearGradient id="paint0_linear" x1="33" y1="0" x2="5.85209e-07" y2="36" gradientUnits="userSpaceOnUse">
<stop stop-color="#6F85EF"/>
<stop offset="1" stop-color="#0DE1D4"/>
</linearGradient>
</defs>
</svg>
