<svg fill="none" xmlns="http://www.w3.org/2000/svg" viewBox="0 0 18 20"><mask id="a" fill="#fff"><path fill-rule="evenodd" clip-rule="evenodd" d="M2 7a7 7 0 0114 0v7h2v2H0v-2h2V7zm5 11v2h4v-2H7z"/></mask><path d="M16 14h-2v2h2v-2zm2 0h2v-2h-2v2zm0 2v2h2v-2h-2zM0 16h-2v2h2v-2zm0-2v-2h-2v2h2zm2 0v2h2v-2H2zm5 6H5v2h2v-2zm0-2v-2H5v2h2zm4 2v2h2v-2h-2zm0-2h2v-2h-2v2zM9-2a9 9 0 00-9 9h4a5 5 0 015-5v-4zm9 9a9 9 0 00-9-9v4a5 5 0 015 5h4zm0 7V7h-4v7h4zm0-2h-2v4h2v-4zm2 4v-2h-4v2h4zM0 18h18v-4H0v4zm-2-4v2h4v-2h-4zm4-2H0v4h2v-4zM0 7v7h4V7H0zm9 13v-2H5v2h4zm2-2H7v4h4v-4zm-2 0v2h4v-2H9zm-2 2h4v-4H7v4z" fill="#B4BEF0" mask="url(#a)"/></svg>