<svg fill="none" xmlns="http://www.w3.org/2000/svg" viewBox="0 0 20 20"><path d="M12 1h1a1 1 0 00-1-1v1zM8 1V0a1 1 0 00-1 1h1zm4 2.29h-1c0 .44.3.83.71.96l.29-.96zm2.8 1.62l-.68.73a1 1 0 001.19.14l-.5-.87zm2-1.14l.86-.5a1 1 0 00-1.37-.37l.5.87zm2 3.46l.5.87a1 1 0 00.36-1.37l-.87.5zM16.8 8.38l-.5-.87a1 1 0 00-.47 1.1l.97-.23zm0 3.24l-.97-.23a1 1 0 00.47 1.1l.5-.87zm1.98 1.15l.87.5a1 1 0 00-.37-1.37l-.5.87zm-2 3.46l-.5.87a1 1 0 001.37-.37l-.87-.5zm-1.98-1.14l.5-.87a1 1 0 00-1.19.14l.69.73zM12 16.7l-.29-.96a1 1 0 00-.71.96h1zM12 19v1a1 1 0 001-1h-1zm-4 0H7a1 1 0 001 1v-1zm0-2.29h1a1 1 0 00-.71-.96l-.29.96zm-2.81-1.62l.69-.73a1 1 0 00-1.19-.14l.5.87zm-1.98 1.14l-.87.5a1 1 0 001.37.37l-.5-.87zm-2-3.46l-.5-.87a1 1 0 00-.37 1.37l.87-.5zm1.98-1.15l.5.87a1 1 0 00.47-1.1l-.97.23zm0-3.24l.97.23a1 1 0 00-.47-1.1l-.5.87zM1.2 7.23l-.87-.5A1 1 0 00.71 8.1l.5-.87zm2-3.46l.5-.87a1 1 0 00-1.37.37l.87.5zM5.19 4.9l-.5.87a1 1 0 001.19-.14l-.69-.73zM8 3.3l.29.96A1 1 0 009 3.29H8zM12 0H8v2h4V0zm1 3.29V1h-2v2.29h2zm2.5.9a8 8 0 00-3.21-1.86l-.58 1.92a6 6 0 012.41 1.39l1.38-1.45zm.8-1.29l-2 1.15 1 1.73 2-1.15-1-1.73zm3.36 3.83l-2-3.46-1.73 1 2 3.46 1.73-1zm-2.35 2.51L19.3 8.1l-1-1.73-1.98 1.14 1 1.73zM18 10c0-.64-.07-1.26-.22-1.85l-1.94.46c.1.44.16.91.16 1.39h2zm-.22 1.85c.15-.6.22-1.21.22-1.85h-2c0 .48-.06.95-.16 1.4l1.94.45zm1.51.05l-1.98-1.14-1 1.73 1.98 1.14 1-1.73zm-1.63 4.83l2-3.46-1.73-1-2 3.46 1.73 1zm-3.35-.78l1.98 1.15 1-1.73-1.98-1.15-1 1.73zm-2.02 1.72a8 8 0 003.2-1.86l-1.37-1.45a6 6 0 01-2.4 1.4l.57 1.9zM13 19v-2.29h-2V19h2zm-5 1h4v-2H8v2zm-1-3.29V19h2v-2.29H7zm-2.5-.9a8 8 0 003.21 1.86l.58-1.92a6 6 0 01-2.41-1.39L4.5 15.81zm-.8 1.29l1.99-1.15-1-1.73-1.98 1.15 1 1.73zM.35 13.27l2 3.46 1.73-1-2-3.46-1.73 1zm2.35-2.51L.7 11.9l1 1.73 1.98-1.14-1-1.73zM2 10c0 .64.07 1.26.22 1.85l1.94-.46C4.06 10.95 4 10.48 4 10H2zm.22-1.85C2.07 8.75 2 9.36 2 10h2c0-.48.06-.95.16-1.4l-1.94-.45zM.7 8.1l1.98 1.14 1-1.73L1.7 6.37.7 8.1zm1.63-4.83l-2 3.46 1.73 1 2-3.46-1.73-1zm3.35.78L3.71 2.9l-1 1.73 1.98 1.15 1-1.73zm2.02-1.72a8 8 0 00-3.2 1.86l1.37 1.45a6 6 0 012.4-1.4l-.57-1.9zM7 1v2.29h2V1H7zm5 9a2 2 0 01-2 2v2a4 4 0 004-4h-2zm-2-2a2 2 0 012 2h2a4 4 0 00-4-4v2zm-2 2c0-1.1.9-2 2-2V6a4 4 0 00-4 4h2zm2 2a2 2 0 01-2-2H6a4 4 0 004 4v-2z" fill="#B4BEF0"/></svg>